<?xml version="1.0" encoding="UTF-8" standalone="no"?>
<!-- Created with Inkscape (http://www.inkscape.org/) -->

<svg
   xmlns:dc="http://purl.org/dc/elements/1.1/"
   xmlns:cc="http://creativecommons.org/ns#"
   xmlns:rdf="http://www.w3.org/1999/02/22-rdf-syntax-ns#"
   xmlns:svg="http://www.w3.org/2000/svg"
   xmlns="http://www.w3.org/2000/svg"
   xmlns:sodipodi="http://sodipodi.sourceforge.net/DTD/sodipodi-0.dtd"
   xmlns:inkscape="http://www.inkscape.org/namespaces/inkscape"
   width="153.36789mm"
   height="148.01274mm"
   viewBox="0 0 543.42953 524.45459"
   id="svg4174"
   version="1.1"
   inkscape:version="0.91 r13725"
   sodipodi:docname="donut.svg">
  <defs
     id="defs4176" />
  <sodipodi:namedview
     id="base"
     pagecolor="#ffffff"
     bordercolor="#666666"
     borderopacity="1.0"
     inkscape:pageopacity="0.0"
     inkscape:pageshadow="2"
     inkscape:zoom="1"
     inkscape:cx="279.77514"
     inkscape:cy="409.04254"
     inkscape:document-units="px"
     inkscape:current-layer="layer1"
     showgrid="false"
     showborder="true"
     inkscape:object-paths="true"
     inkscape:snap-intersection-paths="true"
     inkscape:object-nodes="true"
     inkscape:snap-smooth-nodes="true"
     inkscape:window-width="1855"
     inkscape:window-height="1056"
     inkscape:window-x="65"
     inkscape:window-y="24"
     inkscape:window-maximized="1"
     fit-margin-top="0"
     fit-margin-left="0"
     fit-margin-right="0"
     fit-margin-bottom="0" />
  <metadata
     id="metadata4179">
    <rdf:RDF>
      <cc:Work
         rdf:about="">
        <dc:format>image/svg+xml</dc:format>
        <dc:type
           rdf:resource="http://purl.org/dc/dcmitype/StillImage" />
        <dc:title></dc:title>
      </cc:Work>
    </rdf:RDF>
  </metadata>
  <g
     inkscape:label="Layer 1"
     inkscape:groupmode="layer"
     id="layer1"
     transform="translate(-67.882749,-243.47313)">
    <path
       style="opacity:1;fill:#ffb380"
       d="m 342.01758,267.92773 a 250,250 0 0 0 -250.000002,250 250,250 0 0 0 250.000002,250 250,250 0 0 0 250,-250 250,250 0 0 0 -250,-250 z m 0,162.5 a 87.5,87.5 0 0 1 87.5,87.5 87.5,87.5 0 0 1 -87.5,87.5 87.5,87.5 0 0 1 -87.5,-87.5 87.5,87.5 0 0 1 87.5,-87.5 z"
       id="path4726"
       inkscape:connector-curvature="0" />
    <path
       style="color:#000000;font-style:normal;font-variant:normal;font-weight:normal;font-stretch:normal;font-size:medium;line-height:normal;font-family:sans-serif;text-indent:0;text-align:start;text-decoration:none;text-decoration-line:none;text-decoration-style:solid;text-decoration-color:#000000;letter-spacing:normal;word-spacing:normal;text-transform:none;direction:ltr;block-progression:tb;writing-mode:lr-tb;baseline-shift:baseline;text-anchor:start;white-space:normal;clip-rule:nonzero;display:inline;overflow:visible;visibility:visible;opacity:1;isolation:auto;mix-blend-mode:normal;color-interpolation:sRGB;color-interpolation-filters:linearRGB;solid-color:#000000;solid-opacity:1;fill:#fb92d1;fill-opacity:1;fill-rule:nonzero;stroke:none;stroke-width:25;stroke-linecap:round;stroke-linejoin:miter;stroke-miterlimit:4;stroke-dasharray:none;stroke-dashoffset:0;stroke-opacity:1;color-rendering:auto;image-rendering:auto;shape-rendering:auto;text-rendering:auto;enable-background:accumulate"
       d="m 345.38086,243.48438 c -2.16813,-0.021 -4.33614,-0.0119 -6.50195,0.0215 C 240.28747,244.06325 144.83624,301.57382 99.582031,389.53125 80.200034,425.931 69.319385,462.64442 67.890625,504.21094 l -0.0078,0.21094 0,0.21093 c -0.01224,18.79919 1.752387,37.81704 7.140626,53.64258 2.694118,7.91277 6.288417,15.17081 11.949218,21.06055 5.660801,5.88973 14.064921,10.07872 23.035151,10.03125 17.79201,-0.0942 31.7945,-8.47848 39.22852,-19.80274 7.43402,-11.32426 9.70677,-24.10989 11.60351,-35.65429 1.89675,-11.5444 3.46006,-22.16181 5.85157,-27.86133 1.19575,-2.84977 2.35799,-4.23913 3.23242,-4.90235 0.87442,-0.66321 1.71531,-1.17871 4.76172,-1.14257 10.02519,0.11891 11.49055,2.10382 14.21093,7.07617 2.72039,4.97235 4.46206,14.46866 6.1875,25.28711 1.72544,10.81845 3.49764,23.12666 10.7793,34.24609 7.28167,11.11943 21.2428,19.10722 39.28711,19.37305 10.12995,0.14923 19.1052,-6.14052 23.83203,-13.29688 4.72684,-7.15636 6.94898,-15.19834 8.44727,-23.45898 2.88945,-15.93061 2.5454,-32.82432 2.17383,-43.58789 2.9164,-22.38693 17.11935,-38.6647 39.45703,-46.29297 l 0.21679,-0.0742 0.21485,-0.082 c 7.32726,-2.80625 15.51193,-4.2891 23.48437,-4.29492 l 0.10156,0 0.10352,-0.002 c 29.15156,-0.50174 53.06624,27.72569 56.83984,58.10547 0.42698,18.49973 13.63125,32.83739 28.16797,45.2793 14.79888,12.66628 31.48742,23.10156 49.2793,23.10156 10.88171,0 20.31281,-2.31399 27.54883,-7.90429 7.23602,-5.59031 11.0452,-14.00209 12.26562,-21.96094 2.44084,-15.9177 -2.3965,-32.063 -6.91406,-47.73242 -4.51756,-15.66943 -9.05701,-30.99207 -9.3457,-39.34375 -0.14435,-4.17585 0.74291,-5.71448 0.69726,-5.65821 -0.0456,0.0563 -0.14318,-0.67187 4.49805,-0.67187 1.83056,0 2.19668,0.13176 3.90234,1.94726 1.70567,1.81551 3.98465,5.694 5.94727,11.17579 3.92523,10.96354 6.67043,27.68601 9.37109,44.83398 2.70066,17.14797 5.35027,34.72745 10.83789,49.50781 2.74382,7.39018 6.19064,14.24854 11.68555,19.89258 5.49491,5.64404 13.70909,9.66797 22.41602,9.66797 8.9216,0 17.26085,-4.21351 22.83398,-10.08984 5.57313,-5.87636 9.05617,-13.07716 11.63477,-20.87891 5.15718,-15.60351 6.6676,-34.19138 6.44336,-52.29688 l -0.002,-0.12695 -0.004,-0.12695 C 608.95412,440.36228 583.3113,367.20365 529.63281,317.78516 480.10641,271.31688 413.40894,244.141 345.38086,243.48438 Z"
       id="path6223"
       inkscape:connector-curvature="0" />
    <path
       style="opacity:1;fill:#fb7bd1;fill-opacity:1"
       d="m 344.3779,267.93911 c -2.08975,-0.0202 -4.18038,-0.0134 -6.27149,0.0195 -93.76625,0.51506 -185.35339,55.72986 -228.32226,139.30078 -18.705239,35.09855 -28.918053,69.62043 -30.283205,109.33643 -0.02335,35.86042 7.431754,72.34331 29.557885,72.22622 58.35269,-0.30879 22.85585,-89.86199 64.89279,-89.36336 53.36674,0.63302 10.05039,85.09255 70.50032,85.98308 23.02065,0.33913 22.51604,-48.02503 21.76385,-68.84594 3.32927,-27.32844 21.51613,-48.10342 47.92382,-57.12159 8.82974,-3.38168 18.4574,-5.11416 27.94532,-5.12109 37.09774,-0.63851 65.31344,33.58275 69.53564,69.62768 -0.0451,22.21389 41.89611,56.85748 64.9657,56.85748 72.97715,0 -26.85335,-123.27167 28.75103,-123.27167 41.89798,0 20.89914,137.0241 64.15909,137.0241 21.96016,0 28.83978,-36.17164 28.41324,-70.60991 -2.24243,-68.54236 -27.0493,-138.5137 -77.6665,-185.08664 C 473.03436,294.57977 409.16003,268.5644 344.3779,267.93911 Z"
       id="path4733"
       inkscape:connector-curvature="0"
       sodipodi:nodetypes="scccsssccccsssccs" />
    <rect
       style="opacity:1;fill:#ffffff;fill-opacity:1;stroke:#ff0000;stroke-width:0;stroke-linecap:round;stroke-miterlimit:4;stroke-dasharray:none;stroke-opacity:1"
       id="rect6327"
       width="41.526356"
       height="12.457908"
       x="144.01852"
       y="-504.68698"
       transform="matrix(-0.85960111,0.51096568,-0.51096568,-0.85960111,0,0)" />
    <rect
       transform="matrix(-0.96519367,-0.26153619,0.26153619,-0.96519367,0,0)"
       y="-379.99292"
       x="-272.32071"
       height="12.457908"
       width="41.526356"
       id="rect6329"
       style="opacity:1;fill:#ffffff;fill-opacity:1;stroke:#ff0000;stroke-width:0;stroke-linecap:round;stroke-miterlimit:4;stroke-dasharray:none;stroke-opacity:1" />
    <rect
       style="opacity:1;fill:#ffffff;fill-opacity:1;stroke:#ff0000;stroke-width:0;stroke-linecap:round;stroke-miterlimit:4;stroke-dasharray:none;stroke-opacity:1"
       id="rect6331"
       width="41.526356"
       height="12.457908"
       x="-546.2099"
       y="-98.460739"
       transform="matrix(-0.61580156,-0.78790129,0.78790129,-0.61580156,0,0)" />
    <rect
       transform="matrix(-0.68472055,0.72880571,-0.72880571,-0.68472055,0,0)"
       y="-425.45935"
       x="32.066628"
       height="12.457908"
       width="41.526356"
       id="rect6333"
       style="opacity:1;fill:#ffffff;fill-opacity:1;stroke:#ff0000;stroke-width:0;stroke-linecap:round;stroke-miterlimit:4;stroke-dasharray:none;stroke-opacity:1" />
    <rect
       style="opacity:1;fill:#ffffff;fill-opacity:1;stroke:#ff0000;stroke-width:0;stroke-linecap:round;stroke-miterlimit:4;stroke-dasharray:none;stroke-opacity:1"
       id="rect6335"
       width="40.097237"
       height="12.913603"
       x="-286.2157"
       y="-371.7114"
       transform="matrix(-0.99610882,-0.08813184,0.04569877,-0.99895527,0,0)" />
    <rect
       transform="matrix(0.67506231,0.73776072,-0.62153032,0.78339011,0,0)"
       y="-58.967201"
       x="526.85516"
       height="12.250602"
       width="44.504608"
       id="rect6337"
       style="opacity:1;fill:#ffffff;fill-opacity:1;stroke:#ff0000;stroke-width:0;stroke-linecap:round;stroke-miterlimit:4;stroke-dasharray:none;stroke-opacity:1" />
    <rect
       style="opacity:1;fill:#ffffff;fill-opacity:1;stroke:#ff0000;stroke-width:0;stroke-linecap:round;stroke-miterlimit:4;stroke-dasharray:none;stroke-opacity:1"
       id="rect6339"
       width="44.504608"
       height="12.250602"
       x="-110.6934"
       y="-624.39716"
       transform="matrix(-0.8959601,0.44413455,-0.58043322,-0.81430785,0,0)" />
    <rect
       style="opacity:1;fill:#ffffff;fill-opacity:1;stroke:#ff0000;stroke-width:0;stroke-linecap:round;stroke-miterlimit:4;stroke-dasharray:none;stroke-opacity:1"
       id="rect6341"
       width="44.504608"
       height="12.250602"
       x="-203.92207"
       y="-592.67548"
       transform="matrix(-0.8959601,0.44413455,-0.58043322,-0.81430785,0,0)" />
    <rect
       transform="matrix(0.44471979,0.89566975,-0.81392848,0.58096509,0,0)"
       y="-289.80026"
       x="752.50775"
       height="12.345353"
       width="44.848824"
       id="rect6345"
       style="opacity:1;fill:#800000;fill-opacity:1;stroke:#ff0000;stroke-width:0;stroke-linecap:round;stroke-miterlimit:4;stroke-dasharray:none;stroke-opacity:1" />
    <rect
       style="opacity:1;fill:#800000;fill-opacity:1;stroke:#ff0000;stroke-width:0;stroke-linecap:round;stroke-miterlimit:4;stroke-dasharray:none;stroke-opacity:1"
       id="rect6347"
       width="41.526356"
       height="12.457908"
       x="-523.41516"
       y="-197.67888"
       transform="matrix(-0.8678862,-0.49676307,0.49676307,-0.8678862,0,0)" />
    <rect
       transform="matrix(-0.77324634,0.63410575,-0.63410575,-0.77324634,0,0)"
       y="-476.63446"
       x="-80.957611"
       height="12.457908"
       width="41.526356"
       id="rect6349"
       style="opacity:1;fill:#800000;fill-opacity:1;stroke:#ff0000;stroke-width:0;stroke-linecap:round;stroke-miterlimit:4;stroke-dasharray:none;stroke-opacity:1" />
    <rect
       style="opacity:1;fill:#800000;fill-opacity:1;stroke:#ff0000;stroke-width:0;stroke-linecap:round;stroke-miterlimit:4;stroke-dasharray:none;stroke-opacity:1"
       id="rect6351"
       width="41.526356"
       height="12.457908"
       x="-299.69846"
       y="616.68561"
       transform="matrix(0.41577109,-0.9094693,0.9094693,0.41577109,0,0)" />
    <rect
       style="opacity:1;fill:#800000;fill-opacity:1;stroke:#ff0000;stroke-width:0;stroke-linecap:round;stroke-miterlimit:4;stroke-dasharray:none;stroke-opacity:1"
       id="rect6353"
       width="41.526356"
       height="12.457908"
       x="46.427437"
       y="-493.02283"
       transform="matrix(-0.85960111,0.51096568,-0.51096568,-0.85960111,0,0)" />
    <rect
       transform="matrix(0.62724792,0.77881965,-0.77881965,0.62724792,0,0)"
       y="72.846901"
       x="386.65076"
       height="11.547181"
       width="38.490597"
       id="rect6355"
       style="opacity:1;fill:#800000;fill-opacity:1;stroke:#ff0000;stroke-width:0;stroke-linecap:round;stroke-miterlimit:4;stroke-dasharray:none;stroke-opacity:1" />
    <rect
       transform="matrix(0.78342324,0.62148855,-0.48956326,0.87196778,0,0)"
       y="-1.0742847"
       x="692.1214"
       height="12.250602"
       width="44.504608"
       id="rect6357"
       style="opacity:1;fill:#ffffff;fill-opacity:1;stroke:#ff0000;stroke-width:0;stroke-linecap:round;stroke-miterlimit:4;stroke-dasharray:none;stroke-opacity:1" />
    <rect
       transform="matrix(-0.8678862,-0.49676307,0.49676307,-0.8678862,0,0)"
       y="-197.67888"
       x="-523.41516"
       height="12.457908"
       width="41.526356"
       id="rect6359"
       style="opacity:1;fill:#800000;fill-opacity:1;stroke:#ff0000;stroke-width:0;stroke-linecap:round;stroke-miterlimit:4;stroke-dasharray:none;stroke-opacity:1" />
    <rect
       style="opacity:1;fill:#800000;fill-opacity:1;stroke:#ff0000;stroke-width:0;stroke-linecap:round;stroke-miterlimit:4;stroke-dasharray:none;stroke-opacity:1"
       id="rect6363"
       width="41.526356"
       height="12.457908"
       x="-600.02747"
       y="-76.610474"
       transform="matrix(-0.8678862,-0.49676307,0.49676307,-0.8678862,0,0)" />
  </g>
</svg>
